<?xml version="1.0" encoding="utf-8"?>
<!-- Generator: Adobe Illustrator 22.0.1, SVG Export Plug-In . SVG Version: 6.00 Build 0)  -->
<svg version="1.1" id="Calque_1" xmlns="http://www.w3.org/2000/svg" xmlns:xlink="http://www.w3.org/1999/xlink" x="0px" y="0px"
	 viewBox="0 0 14.9 17" style="enable-background:new 0 0 14.9 17;" xml:space="preserve">
<style type="text/css">
	.st0{fill:#FFFFFF;}
	.st1{fill:#EBEBEB;}
	.st2{fill:#F2F2F2;}
	.st3{fill:#FF0000;}
	.st4{fill:#B3B3B3;}
	.st5{fill:none;stroke:#E6E6E6;stroke-miterlimit:10;}
	.st6{fill:none;stroke:#CCCCCC;stroke-miterlimit:10;}
	.st7{fill:#FFFFFF;stroke:#E6E6E6;stroke-width:0.4797;stroke-miterlimit:10;}
	.st8{fill:#FFFFFF;stroke:#E6E6E6;stroke-width:0.5382;stroke-miterlimit:10;}
	.st9{fill:#FFFFFF;stroke:#CCCCCC;stroke-miterlimit:10;}
</style>
<g>
	<path d="M0.5,2.7C0.2,2.6,0,2.4,0,2.1c0-0.3,0.2-0.5,0.5-0.5l6.3-1.5C7.2,0,7.7,0,8.1,0.1l6.3,1.5c0.3,0.1,0.5,0.3,0.5,0.5
		c0,0.3-0.2,0.4-0.5,0.5l-3.2,0.8c0.3,0.6,0.5,1.3,0.5,1.9c0,1.2-0.4,2.2-1.2,3s-1.8,1.2-3,1.2c-1.2,0-2.2-0.4-3-1.2s-1.2-1.8-1.2-3
		c0-0.6,0.2-1.3,0.5-1.9L1.5,2.9v1.8C1.7,4.8,1.9,5,1.9,5.3c0,0.3-0.1,0.5-0.4,0.7L2,8c0,0.1,0,0.2,0,0.2c0,0.1,0,0.1-0.1,0.2
		c0,0-0.1,0.1-0.2,0.1H0.4c-0.1,0-0.2,0-0.2-0.1C0.1,8.3,0.1,8.1,0.1,8L0.6,6C0.4,5.8,0.3,5.6,0.3,5.3c0-0.3,0.1-0.5,0.4-0.7v-2
		L0.5,2.7z M10.6,10.7c1.2,0,2.2,0.5,3,1.3c0.8,0.9,1.2,1.9,1.2,3.1v0.3c0,0.4-0.2,0.8-0.5,1.1c-0.3,0.3-0.7,0.5-1.1,0.5H1.6
		c-0.4,0-0.8-0.2-1.1-0.5C0.2,16.2,0,15.8,0,15.4v-0.3c0-1.2,0.4-2.2,1.2-3.1c0.8-0.9,1.8-1.3,3-1.3l3.2,3.2L10.6,10.7z"/>
</g>
</svg>
