<?xml version="1.0" encoding="utf-8"?>
<!-- Generator: Adobe Illustrator 22.0.1, SVG Export Plug-In . SVG Version: 6.00 Build 0)  -->
<svg version="1.1" id="Calque_1" xmlns="http://www.w3.org/2000/svg" xmlns:xlink="http://www.w3.org/1999/xlink" x="0px" y="0px"
	 viewBox="0 0 21.4 16.6" style="enable-background:new 0 0 21.4 16.6;" xml:space="preserve">
<style type="text/css">
	.st0{fill:#FFFFFF;}
	.st1{fill:#EBEBEB;}
	.st2{fill:#F2F2F2;}
	.st3{fill:#FF0000;}
	.st4{fill:#B3B3B3;}
	.st5{fill:none;stroke:#E6E6E6;stroke-miterlimit:10;}
	.st6{fill:none;stroke:#CCCCCC;stroke-miterlimit:10;}
	.st7{fill:#FFFFFF;stroke:#E6E6E6;stroke-width:0.4797;stroke-miterlimit:10;}
	.st8{fill:#FFFFFF;stroke:#E6E6E6;stroke-width:0.5382;stroke-miterlimit:10;}
	.st9{fill:#FFFFFF;stroke:#CCCCCC;stroke-miterlimit:10;}
</style>
<g>
	<path d="M19.6,0c0.5,0,0.9,0.2,1.3,0.5c0.3,0.3,0.5,0.8,0.5,1.3v13.1c0,0.5-0.2,0.9-0.5,1.3c-0.3,0.3-0.8,0.5-1.3,0.5H1.8
		c-0.5,0-0.9-0.2-1.3-0.5C0.2,15.8,0,15.3,0,14.8V1.8c0-0.5,0.2-0.9,0.5-1.3C0.9,0.2,1.3,0,1.8,0H19.6z M10.7,12.4v-0.7
		c0-0.6-0.2-1.1-0.7-1.5C9.5,9.7,8.9,9.5,8.2,9.5H8c-0.5,0.2-1,0.3-1.5,0.3S5.5,9.7,5,9.5H4.9c-0.7,0-1.3,0.2-1.8,0.6
		c-0.5,0.4-0.7,0.9-0.7,1.5v0.7c0,0.2,0.1,0.4,0.2,0.5C2.8,13,3,13.1,3.2,13.1h6.7c0.2,0,0.4-0.1,0.6-0.2
		C10.6,12.7,10.7,12.6,10.7,12.4z M8.2,4.3c-0.5-0.5-1-0.7-1.7-0.7c-0.6,0-1.2,0.2-1.7,0.7c-0.5,0.5-0.7,1-0.7,1.7
		c0,0.6,0.2,1.2,0.7,1.7c0.5,0.5,1,0.7,1.7,0.7c0.6,0,1.2-0.2,1.7-0.7c0.5-0.5,0.7-1,0.7-1.7C8.9,5.3,8.7,4.7,8.2,4.3z M19,5.6V5
		c0-0.2-0.1-0.3-0.3-0.3h-5.3c-0.2,0-0.3,0.1-0.3,0.3v0.6c0,0.2,0.1,0.3,0.3,0.3h5.3C18.9,5.9,19,5.8,19,5.6z M19,8V7.4
		c0-0.2-0.1-0.3-0.3-0.3h-5.3c-0.2,0-0.3,0.1-0.3,0.3V8c0,0.2,0.1,0.3,0.3,0.3h5.3C18.9,8.3,19,8.2,19,8z M19,10.4V9.8
		c0-0.2-0.1-0.3-0.3-0.3h-5.3c-0.2,0-0.3,0.1-0.3,0.3v0.6c0,0.2,0.1,0.3,0.3,0.3h5.3C18.9,10.7,19,10.6,19,10.4z"/>
</g>
</svg>
